<?xml version="1.0" encoding="utf-8"?>
<!-- Generator: Adobe Illustrator 21.1.0, SVG Export Plug-In . SVG Version: 6.00 Build 0)  -->
<svg version="1.1" id="レイヤー_1" xmlns="http://www.w3.org/2000/svg" xmlns:xlink="http://www.w3.org/1999/xlink" x="0px"
	 y="0px" viewBox="0 0 376.7 63.8" style="enable-background:new 0 0 376.7 63.8;" xml:space="preserve">
<style type="text/css">
	.st0{fill:#FDD000;}
	.st1{fill:#FFFFFF;}
</style>
<g>
	<path class="st0" d="M66.3,0H18.7L0,31.9l18.4,31.9h15.2l0,0c0.8,0,1.5-0.7,1.5-1.5s-0.7-1.5-1.5-1.5H20.1L4.4,33.4h32.4v-3.1H4.5
		L20.5,3h45.9c0.8,0,1.5-0.7,1.5-1.5S67.2,0,66.3,0z"/>
	<path class="st0" d="M65.9,63.8L65.9,63.8H33.7c-0.5,0-1-0.3-1.3-0.7c-0.3-0.5-0.3-1,0-1.5L65,0.8c0.4-0.7,1.3-1,2.1-0.6
		c0.7,0.4,1,1.3,0.6,2.1L36.3,60.8H66c0.8,0,1.5,0.7,1.5,1.5C67.5,63.2,66.8,63.8,65.9,63.8z"/>
	<path class="st0" d="M52,50.3H30.2L18,31.9l12.4-18.6h21.5c0.8,0,1.5,0.7,1.5,1.5s-0.7,1.5-1.5,1.5H32.1L21.7,31.9l10.2,15.3H52
		c0.8,0,1.5,0.7,1.5,1.5S52.8,50.3,52,50.3z"/>
	<g>
		<path class="st1" d="M94.7,47H77.6V16.8h16.8v3.7H82v9.1h11.6v3.6H82v10.1h12.7V47z"/>
		<path class="st1" d="M103.8,28.4c1.6-2.5,4.2-4.1,7.4-4.1c6.2,0,8.2,4.1,8.2,10v12.6h-4.1V36.1c0-4.3-0.4-8.3-5.1-8.3
			c-2.2,0-4.2,1.3-5.3,3.2c-0.7,1.2-1,2.9-1,5.5v10.6h-4.2V31.4c0-2.3,0-4.7-0.2-6.5h4C103.6,25.9,103.7,27.3,103.8,28.4L103.8,28.4
			z"/>
		<path class="st1" d="M130.1,25h5.9v3.2h-5.9v9.7c0,3.5,0.5,5.9,3.8,5.9c0.9,0,1.6-0.2,2.4-0.5l0.1,3.2c-1,0.4-2.3,0.6-3.5,0.6
			c-5.6,0-6.9-3.4-6.9-8.1V28.3h-5.1v-3.2h5.1v-5.2l4.1-1.4V25z"/>
		<path class="st1" d="M142.8,36.9c0.2,4.5,3.2,7.1,7.7,7.1c2.6,0,4.5-0.6,6.5-1.6l0.1,3.8c-2,0.9-4.2,1.3-6.8,1.3
			c-7.4,0-11.6-4.5-11.6-11.7c0-7,4.2-11.4,10.5-11.4c5.8,0,9.5,3.5,9.5,11c0,0.4,0,1.1-0.1,1.6L142.8,36.9L142.8,36.9z M154.6,33.8
			c0-4.2-2.3-6.3-5.6-6.3c-3.2,0-5.8,2.3-6.1,6.3H154.6z"/>
		<path class="st1" d="M166.7,28.6c1.3-2.5,3.4-4.2,6.2-4.2c0.9,0,1.6,0.1,2.1,0.3v3.9c-0.5-0.2-1.3-0.3-2.2-0.3
			c-3.8,0-6.1,3.2-6.1,8.8v10h-4.1V31.4c0-2.3,0-4.7-0.2-6.5h4.1C166.6,26,166.6,27.5,166.7,28.6L166.7,28.6z"/>
		<path class="st1" d="M178.6,31.4c0-2.3,0-4.7-0.2-6.5h3.9c0.1,0.9,0.2,2.4,0.2,3.6h0.1c1.7-2.8,4.2-4.1,7.6-4.1
			c5.7,0,9.5,4.5,9.5,11.3c0,7-3.9,11.9-9.6,11.9c-3.4,0-6.1-1.8-7.4-4.2h-0.1c0.1,0.9,0.1,4.2,0.1,5.5v7.4h-4.1V31.4z M182.6,36
			c0,4.4,2.9,8.1,6.5,8.1c3.8,0,6.2-3.6,6.2-8.1c0-4.9-2.4-8.2-6.2-8.2C185.5,27.8,182.6,31.4,182.6,36z"/>
		<path class="st1" d="M207.3,28.6c1.3-2.5,3.4-4.2,6.2-4.2c0.9,0,1.6,0.1,2.1,0.3v3.9c-0.5-0.2-1.3-0.3-2.2-0.3
			c-3.8,0-6.1,3.2-6.1,8.8v10h-4.1V31.4c0-2.3,0-4.7-0.2-6.5h4.1C207.1,26,207.2,27.5,207.3,28.6L207.3,28.6z"/>
		<path class="st1" d="M223.3,20.9h-4.6v-4.5h4.6V20.9z M223,47h-4.2V24.9h4.2V47z"/>
		<path class="st1" d="M227.6,42.7c1.7,1,3.6,1.4,5.4,1.4c2.4,0,4.2-1.1,4.2-3c0-1.7-1.2-2.6-4.6-4.2c-3.7-1.8-5.1-3.3-5.1-6.1
			c0-4,3.2-6.4,7.7-6.4c1.9,0,3.8,0.3,5.1,0.9l-0.3,3.4c-1.6-0.8-3.1-1.1-4.7-1.1c-2,0-3.6,1-3.6,2.8c0,1.8,1.3,2.6,4.1,3.8
			c4.1,1.8,5.6,3.7,5.6,6.6c0,4.4-3.3,6.7-8,6.7c-2.3,0-4.1-0.3-6-1.1L227.6,42.7z"/>
		<path class="st1" d="M247.7,36.9c0.2,4.5,3.2,7.1,7.7,7.1c2.6,0,4.5-0.6,6.5-1.6l0.1,3.8c-2,0.9-4.2,1.3-6.8,1.3
			c-7.4,0-11.6-4.5-11.6-11.7c0-7,4.2-11.4,10.5-11.4c5.8,0,9.5,3.5,9.5,11c0,0.4,0,1.1-0.1,1.6L247.7,36.9L247.7,36.9z M259.5,33.8
			c0-4.2-2.3-6.3-5.6-6.3c-3.3,0-5.8,2.3-6.1,6.3H259.5z"/>
		<path class="st1" d="M295.5,21.7c-1.8-1-3.9-1.5-6.4-1.5c-6.8,0-11.5,4.8-11.5,11.5c0,7.1,4.9,11.7,11.8,11.7
			c2.1,0,4.1-0.3,6.4-1.3l0.3,4.1c-1.8,0.7-4.4,1.1-6.7,1.1c-9.5,0-16.4-5.5-16.4-15.6c0-9,6.9-15.2,16.1-15.2
			c2.4,0,4.7,0.3,6.8,1.2L295.5,21.7z"/>
		<path class="st1" d="M304.8,47h-4.2V14.2h4.2V47z"/>
		<path class="st1" d="M330.5,36.1c0,6.8-4.7,11.4-11.3,11.4c-6.5,0-11.3-4.8-11.3-11.4c0-6.9,4.7-11.7,11.5-11.7
			C325.8,24.4,330.5,29.2,330.5,36.1z M312.1,36.1c0,4.8,2.9,8,7.1,8c4,0,7-3.2,7-8c0-4.9-2.9-8.3-7.1-8.3
			C315,27.8,312.1,31.2,312.1,36.1z"/>
		<path class="st1" d="M348.6,43.5c-1.2,1.9-3.4,4-7.6,4c-4.9,0-8-3.5-8-8.8V24.9h4.1v10.9c0,4.6,0.5,8.3,5,8.3
			c3.9,0,6.3-3.6,6.3-7.8V24.9h4.1v15.5c0,2.3,0,4.8,0.2,6.6h-3.9C348.8,46.1,348.7,44.9,348.6,43.5L348.6,43.5z"/>
		<path class="st1" d="M376.5,40.3c0,2.3,0,4.8,0.2,6.7h-3.8c-0.1-1.2-0.1-2.4-0.1-3.8h-0.1c-1.7,2.8-4.1,4.3-7.5,4.3
			c-5.9,0-9.7-4.5-9.7-11.4s3.9-11.7,9.7-11.7c3.2,0,5.8,1.5,7.2,3.9h0.1c-0.1-1.4-0.1-3.3-0.1-5.5v-8.5h4.1L376.5,40.3L376.5,40.3z
			 M359.9,36c0,4.6,2.5,8.1,6.2,8.1s6.5-3.6,6.5-8.1c0-4.7-2.7-8.2-6.5-8.2C362.5,27.8,359.9,31.4,359.9,36z"/>
	</g>
</g>
</svg>
