<svg id="ECLWebRTC" xmlns="http://www.w3.org/2000/svg" width="228.19" height="41.96" viewBox="0 0 228.19 41.96"><defs><style>.cls-1{fill:#fff;}</style></defs><title>アートボード 1</title><g id="WebRTC_Platform" data-name="WebRTC Platform"><path class="cls-1" d="M15.68,26.55C15.47,25.69,15,24,14.85,23h-.06c-.18,1-.54,2.56-.77,3.51L10.15,41.6H6.31L0,20.84H3.24l3.9,13.92c.18.65.83,3.3,1.07,4.52h.06c.24-1.22.89-3.84,1.07-4.52l3.45-13.92h4.28l3.54,13.92c.18.71.8,3.3,1,4.52h.06c.27-1.22.89-3.75,1.1-4.52l3.87-13.92h3.12L23.39,41.6H19.61Z"/><path class="cls-1" d="M33.3,34.7c.12,3.06,2.2,4.88,5.27,4.88A9,9,0,0,0,43,38.45L43.08,41a11,11,0,0,1-4.7.92c-5.06,0-7.94-3.06-7.94-8.06,0-4.79,2.92-7.82,7.23-7.82,4,0,6.52,2.41,6.52,7.53,0,.3,0,.77-.06,1.1Zm8.12-2.17c0-2.92-1.61-4.31-3.84-4.31s-4,1.61-4.22,4.31Z"/><path class="cls-1" d="M49.48,39c0,1-.06,2-.12,2.62H46.83c.12-1.28.15-3,.15-4.58V19.11h2.77v5.83c0,1.49,0,3-.09,3.93h.06a5.9,5.9,0,0,1,5.18-2.8c3.93,0,6.49,3.36,6.49,7.8,0,4.61-2.59,8.09-6.72,8.09a5.77,5.77,0,0,1-5.12-3Zm.3-4.91c0,3.06,1.9,5.53,4.4,5.53s4.25-2.44,4.25-5.56-1.55-5.62-4.22-5.62C51.71,28.42,49.78,30.92,49.78,34.08Z"/><path class="cls-1" d="M64.45,20.84h5.21c5,0,8.06,1.37,8.06,5.44,0,2.83-1.9,4.28-4.7,4.85v.06A4.8,4.8,0,0,1,75.9,34l3.51,7.56H76.05L73.11,35c-.92-2.11-1.7-2.65-4.73-2.65h-.89V41.6h-3Zm3,9h1.43c3.66,0,5.74-.92,5.74-3.3,0-2.65-2.08-3.15-5.74-3.15H67.48Z"/><path class="cls-1" d="M85.87,41.6V23.4l-6.46.09V20.84H95.19v2.65l-6.28-.09V41.6Z"/><path class="cls-1" d="M111.4,24.23a8.93,8.93,0,0,0-4.4-1,7.58,7.58,0,0,0-7.88,7.91,7.69,7.69,0,0,0,8.09,8.06,10.15,10.15,0,0,0,4.4-.89l.21,2.8a13.16,13.16,0,0,1-4.61.74C100.66,41.81,96,38,96,31.1c0-6.16,4.76-10.47,11-10.47a11.53,11.53,0,0,1,4.67.8Z"/><path class="cls-1" d="M125.06,20.84c4.76,0,8.39,1.16,8.39,6.22s-4.11,6.25-8.39,6.25h-1.75v8.3h-3V20.84Zm-1.75,9.94h1.49c3.63,0,5.65-.71,5.65-3.69s-2-3.72-5.68-3.72h-1.46Z"/><path class="cls-1" d="M138.66,41.6H135.8V19.11h2.86Z"/><path class="cls-1" d="M143.12,27.35a10,10,0,0,1,5.06-1.28c4.43,0,6.1,2.56,6.1,6,0,1.93-.06,4.31-.06,4.94,0,1.67.06,3.48.18,4.58h-2.53c0-.24-.06-.8-.06-1.25s0-.92.06-1.34h-.06a5.42,5.42,0,0,1-5.06,2.8c-3.21,0-5.3-1.79-5.3-4.58,0-3.15,2.86-4.94,8-4.94.62,0,1.46,0,2.14.09v-.12c0-2.56-1.28-3.87-3.87-3.87a8,8,0,0,0-4.4,1.46Zm6.93,7c-3.75,0-5.59.89-5.59,2.92,0,1.49,1.16,2.38,2.89,2.38a4.08,4.08,0,0,0,3.78-2.23,7.18,7.18,0,0,0,.48-3C151.27,34.35,150.74,34.32,150.06,34.32Z"/><path class="cls-1" d="M162,26.52h4.08v2.23H162v6.66c0,2.41.33,4.08,2.62,4.08a3.86,3.86,0,0,0,1.64-.36l.09,2.23a6.82,6.82,0,0,1-2.41.42c-3.84,0-4.73-2.32-4.73-5.59V28.75h-3.48V26.52h3.48V22.95l2.8-1Z"/><path class="cls-1" d="M176.8,21.52a6.49,6.49,0,0,0-1.46-.18c-1.87,0-2.56,1.1-2.56,3.69v1.49h4.08v2.23h-4.08V41.6H170V28.75h-3.6V26.52H170V25.09c0-3.63,1.25-6.1,4.94-6.1a8.29,8.29,0,0,1,2.08.24Z"/><path class="cls-1" d="M193.17,34.11a7.48,7.48,0,0,1-7.8,7.85,7.56,7.56,0,0,1-7.8-7.85c0-4.76,3.24-8,7.88-8S193.17,29.41,193.17,34.11Zm-12.59,0c0,3.33,2,5.5,4.85,5.5s4.79-2.2,4.79-5.5-2-5.68-4.88-5.68S180.58,30.75,180.58,34.11Z"/><path class="cls-1" d="M198.73,29A4.75,4.75,0,0,1,203,26.07a4.1,4.1,0,0,1,1.46.21v2.65a4.05,4.05,0,0,0-1.52-.24c-2.62,0-4.19,2.17-4.19,6V41.6h-2.83V30.92c0-1.61,0-3.21-.15-4.49h2.8a24.52,24.52,0,0,1,.12,2.56Z"/><path class="cls-1" d="M209,28.87a5.31,5.31,0,0,1,4.79-2.8,4.31,4.31,0,0,1,4.37,3.12,5.46,5.46,0,0,1,5-3.12c3.3,0,5,2.08,5,6.19V41.6h-2.83V32.26c0-2.47-1-3.84-2.83-3.84a3.69,3.69,0,0,0-3.15,2,8.55,8.55,0,0,0-.71,3.9V41.6h-2.83V32.77c0-3.18-.74-4.34-2.68-4.34a3.88,3.88,0,0,0-3.39,2.35,8.54,8.54,0,0,0-.65,3.69V41.6h-2.83V30.92c0-1.61,0-3.21-.15-4.49h2.71c.06.65.09,1.67.09,2.44Z"/></g><g id="Enterprise_Cloud" data-name="Enterprise Cloud"><path class="cls-1" d="M7,12.17H.64V.93H6.88V2.3H2.27V5.68H6.56V7H2.27v3.75H7Z"/><path class="cls-1" d="M10.37,5.28a3.17,3.17,0,0,1,2.73-1.51c2.32,0,3.06,1.53,3.06,3.7v4.7H14.63V8.11c0-1.61-.16-3.07-1.9-3.07a2.31,2.31,0,0,0-2,1.17,4,4,0,0,0-.39,2v3.93H8.86V6.39c0-.87,0-1.74-.08-2.43h1.5c0,.35.06.89.06,1.32Z"/><path class="cls-1" d="M20.15,4h2.2V5.21h-2.2v3.6c0,1.3.18,2.2,1.41,2.2a2.08,2.08,0,0,0,.88-.19l0,1.21a3.68,3.68,0,0,1-1.3.23c-2.07,0-2.56-1.26-2.56-3v-4H16.76V4h1.88V2.08l1.51-.51Z"/><path class="cls-1" d="M24.85,8.43a2.62,2.62,0,0,0,2.85,2.64,4.86,4.86,0,0,0,2.4-.61l0,1.4a6,6,0,0,1-2.54.5c-2.73,0-4.29-1.66-4.29-4.36s1.58-4.23,3.91-4.23c2.15,0,3.52,1.3,3.52,4.07,0,.16,0,.42,0,.6Zm4.39-1.17c0-1.58-.87-2.33-2.07-2.33a2.31,2.31,0,0,0-2.28,2.33Z"/><path class="cls-1" d="M33.74,5.34A2.57,2.57,0,0,1,36,3.77a2.21,2.21,0,0,1,.79.11V5.31A2.18,2.18,0,0,0,36,5.18c-1.42,0-2.27,1.17-2.27,3.27v3.72H32.21V6.39c0-.87,0-1.74-.08-2.43h1.51a13.27,13.27,0,0,1,.06,1.38Z"/><path class="cls-1" d="M38.15,6.39c0-.87,0-1.74-.08-2.43h1.46c0,.34.06.9.06,1.32h0a3.08,3.08,0,0,1,2.81-1.51C44.55,3.77,46,5.44,46,7.95s-1.43,4.41-3.55,4.41a3.08,3.08,0,0,1-2.75-1.58h0c0,.32,0,1.54,0,2v2.74H38.15Zm1.51,1.69c0,1.64,1.06,3,2.41,3s2.3-1.35,2.3-3c0-1.82-.9-3-2.3-3S39.66,6.37,39.66,8.08Z"/><path class="cls-1" d="M48.81,5.34a2.57,2.57,0,0,1,2.3-1.58,2.21,2.21,0,0,1,.79.11V5.31a2.19,2.19,0,0,0-.82-.13c-1.41,0-2.27,1.17-2.27,3.27v3.72H47.28V6.39c0-.87,0-1.74-.08-2.43h1.51a13.27,13.27,0,0,1,.06,1.38Z"/><path class="cls-1" d="M54.74,2.48H53V.79h1.7Zm-.08,9.69H53.12V4h1.54Z"/><path class="cls-1" d="M56.35,10.59a4.07,4.07,0,0,0,2,.53c.88,0,1.54-.42,1.54-1.13s-.43-.95-1.7-1.56S56.3,7.19,56.3,6.15c0-1.48,1.19-2.38,2.86-2.38a5.13,5.13,0,0,1,1.9.34l-.13,1.27A3.87,3.87,0,0,0,59.18,5c-.76,0-1.35.37-1.35,1s.47.95,1.51,1.4c1.53.66,2.07,1.37,2.07,2.45,0,1.64-1.24,2.49-3,2.49a5.8,5.8,0,0,1-2.22-.4Z"/><path class="cls-1" d="M63.82,8.43a2.62,2.62,0,0,0,2.85,2.64,4.86,4.86,0,0,0,2.4-.61l0,1.4a6,6,0,0,1-2.54.5c-2.73,0-4.29-1.66-4.29-4.36s1.58-4.23,3.91-4.23c2.15,0,3.52,1.3,3.52,4.07,0,.16,0,.42,0,.6Zm4.39-1.17c0-1.58-.87-2.33-2.07-2.33a2.31,2.31,0,0,0-2.28,2.33Z"/><path class="cls-1" d="M81.57,2.77a4.82,4.82,0,0,0-2.38-.56,4.1,4.1,0,0,0-4.26,4.28,4.16,4.16,0,0,0,4.37,4.36,5.48,5.48,0,0,0,2.38-.48l.11,1.51a7.11,7.11,0,0,1-2.49.4c-3.54,0-6.08-2-6.08-5.79a5.64,5.64,0,0,1,6-5.66,6.23,6.23,0,0,1,2.52.43Z"/><path class="cls-1" d="M85,12.17H83.48V0H85Z"/><path class="cls-1" d="M94.56,8.11a4,4,0,0,1-4.21,4.25,4.09,4.09,0,0,1-4.21-4.25,4.22,4.22,0,1,1,8.43,0Zm-6.8,0c0,1.8,1.06,3,2.62,3a2.68,2.68,0,0,0,2.59-3C93,6.28,91.88,5,90.33,5S87.76,6.29,87.76,8.11Z"/><path class="cls-1" d="M101.32,10.86a3.13,3.13,0,0,1-2.83,1.5c-1.83,0-3-1.29-3-3.28V4h1.53V8c0,1.71.18,3.07,1.87,3.07,1.45,0,2.35-1.34,2.35-2.9V4h1.53V9.7a23.48,23.48,0,0,0,.08,2.46h-1.46c0-.34-.06-.76-.06-1.3Z"/><path class="cls-1" d="M111.66,9.69c0,.87,0,1.79.08,2.48h-1.4c0-.43,0-.89,0-1.42h0a3.06,3.06,0,0,1-2.78,1.61c-2.2,0-3.6-1.69-3.6-4.25s1.46-4.34,3.62-4.34a3,3,0,0,1,2.67,1.43h0c0-.51,0-1.24,0-2V0h1.51ZM105.5,8.09c0,1.71.93,3,2.3,3s2.4-1.34,2.4-3S109.18,5,107.8,5,105.5,6.36,105.5,8.09Z"/></g></svg>