<svg xmlns="http://www.w3.org/2000/svg" xmlns:xlink="http://www.w3.org/1999/xlink" width="1600" height="800" viewBox="0 0 1600 800"><defs><style>.a{isolation:isolate;}.b,.i{fill:#5285ff;}.c{fill:none;stroke:#004386;stroke-miterlimit:10;stroke-width:50px;}.d{fill:#004386;}.e,.f{fill:#fff;}.f{opacity:0.24;}.f,.g,.h{mix-blend-mode:overlay;}.g{opacity:0.41;fill:url(#a);}.h{opacity:0.18;fill:url(#b);}.i{opacity:0.83;}.j,.k{mix-blend-mode:screen;}.j{fill:url(#c);}.k{fill:url(#d);}</style><linearGradient id="a" x1="1140.37" y1="3688.54" x2="1298.35" y2="3688.54" gradientTransform="translate(59.63 -3339.52)" gradientUnits="userSpaceOnUse"><stop offset="0" stop-color="#fff"/><stop offset="0.47" stop-color="#c1bebd"/><stop offset="1" stop-color="#463d3a"/></linearGradient><linearGradient id="b" x1="982.38" y1="3688.54" x2="1140.37" y2="3688.54" xlink:href="#a"/><linearGradient id="c" x1="1138.17" y1="507.72" x2="1138.17" y2="74.61" gradientUnits="userSpaceOnUse"><stop offset="0.66" stop-color="#fff"/><stop offset="0.66" stop-color="#fdfdfd"/><stop offset="0.7" stop-color="#d1d1d1"/><stop offset="0.75" stop-color="#aaa"/><stop offset="0.79" stop-color="#8b8b8b"/><stop offset="0.84" stop-color="#737373"/><stop offset="0.88" stop-color="#616161"/><stop offset="0.94" stop-color="#575757"/><stop offset="1" stop-color="#545454"/></linearGradient><linearGradient id="d" x1="-15.59" y1="507.72" x2="-15.59" y2="74.61" gradientTransform="matrix(-1, 0, 0, 1, 1246.24, 0)" xlink:href="#c"/></defs><title>アートボード 1</title><g class="a"><path class="b" d="M619.39,356.49c8.58-53.35-33.83-93.14-77.71-100.88-13.32-43.31-39.35-76.61-88.66-85-54.34-9.24-100-.58-136.69,46.84-19.08-2.35-49.3,1.62-65,10.41-15.2,8.47-44,26.4-46.8,64-.06.77,0,1.54-.05,2.31A88.29,88.29,0,0,0,191,450.26c18.18,10.68,27.16,13.14,45.27,13.71a88.1,88.1,0,0,0,63.13-24.52c15.73,34.16,49.12,51.83,89.28,54.82,45.1,3.36,85.65-14.64,104.17-53a72.19,72.19,0,0,0,105.91-11.85c36.41,10.83,39.74,58.28,39.74,58.28S674.39,402.39,619.39,356.49ZM167.44,394.87S273.31,301,411.32,299.45c67.26.41,105.88,14.3,128,26.4,58.68,32.07,86.41,76.54,86.41,76.54s-74-87.09-182.38-90.41c-28.57-.88-59.72-.73-99.52,10.47C297.91,335.35,214.26,371,177.78,413,171.62,409.42,168.7,400.71,167.44,394.87Zm299-32.54c-23.08-1-68.39,5.88-108.19,17.07C312.32,392.32,273,418,237,448.32c-12.31,1.42-42.69-10.57-52.45-23.69,0,0,109.9-101.26,247.91-100.41,73.51.46,108.93,21.58,124.59,30.48,45.72,26,62.72,52,71,68.58C598,390.56,562.39,366.36,466.46,362.33Z"/><path class="b" d="M165.8,599.74,170,583.22a50.08,50.08,0,0,0,22.91,5.73q6.7,0,10.44-2.54a8,8,0,0,0,3.74-7,8.15,8.15,0,0,0-3.38-6.64q-3.38-2.66-11.71-5.46-25.12-8.34-25.12-26.16a23.32,23.32,0,0,1,9.24-19q9.24-7.45,24.6-7.45,13.4,0,23.42,4.55l-4.55,16A44.63,44.63,0,0,0,200.42,531q-6.12,0-9.57,2.34a7.11,7.11,0,0,0-3.45,6.12,7.44,7.44,0,0,0,2.89,5.89q2.9,2.44,13.89,6.35Q216.37,556,222,562.36a22.91,22.91,0,0,1,5.63,15.78,23.93,23.93,0,0,1-9.5,19.65q-9.51,7.55-26.55,7.55Q177,605.34,165.8,599.74Z"/><path class="b" d="M261.07,511.25v55.83h.26q1.69-3.38,18.22-26.81h24.34L280.2,566l27.2,37.87h-25l-16.14-26.16-5.21,6.38v19.78H240.9V511.25Z"/><path class="b" d="M306.36,540.27h22.38q12.3,39,13.15,43.08h.39l11.19-43.08h21.6l-14.71,40.28a246.11,246.11,0,0,1-10.74,25.8q-4.81,9.53-9.6,14.64a37.87,37.87,0,0,1-10.71,8.07,35.2,35.2,0,0,1-12.17,3.61L313,615.75q8.53-1.7,13.44-6.63t4.91-7.29a11.79,11.79,0,0,0-1-3.39Z"/><path class="b" d="M421.15,603.91H398.9l-21.48-87.72H399q9.11,46.72,12.36,66.89h.26q1.69-12.62,13.4-66.89h22q10.35,53.23,11.84,66.37h.26q1-10,12.75-66.37h20.56L469,603.91H447.18q-8.72-43.14-9.79-49.16t-2.18-16.43h-.26q-2.34,14.71-5.07,26.81Z"/><path class="b" d="M556.5,566.3v22.12a92,92,0,0,0,1,15.49H539.45l-1.17-6.38h-.52q-6.58,7.8-18.61,7.81-9.37,0-15.23-5.7a18.55,18.55,0,0,1-5.86-13.83q0-11.84,9.92-18.15t28.47-6.32v-.78q0-7.93-12-7.93a35.51,35.51,0,0,0-18.09,4.81l-3.77-12.75q10.61-5.86,25.38-5.86,14.06,0,21.28,7.09T556.5,566.3Zm-19.39,14.05v-6.5q-19.13,0-19.13,9.89a7.2,7.2,0,0,0,2.15,5.56,8.39,8.39,0,0,0,5.92,2,11.67,11.67,0,0,0,7.58-2.86A9.86,9.86,0,0,0,537.11,580.35Z"/><path class="b" d="M565.48,540.27h22.38q12.3,39,13.14,43.08h.39l11.19-43.08h21.6l-14.71,40.28a246.1,246.1,0,0,1-10.74,25.8q-4.81,9.53-9.6,14.64a37.87,37.87,0,0,1-10.71,8.07,35.2,35.2,0,0,1-12.17,3.61l-4.17-16.92q8.53-1.7,13.44-6.63t4.91-7.29a11.79,11.79,0,0,0-1-3.39Z"/><line class="c" x1="765" y1="385.13" x2="832.42" y2="384.82"/><polygon class="d" points="823.99 324.11 824.56 445.6 885 384.58 823.99 324.11"/><path class="d" d="M1043.08,628.35a37.78,37.78,0,0,0-15.64-3.61c-8.9,0-15.16,4.93-15.16,11.55,0,5.66,2.53,9.63,15.88,15.52,14.56,6.38,20.7,13.6,20.7,24.79,0,14.68-11.55,25-28.64,25A50.33,50.33,0,0,1,1000.6,698l1.32-11.19c6.74,3.37,12.27,4.57,17.45,4.57,10.23,0,17.09-5.29,17.09-13.48,0-7.22-3.49-11.19-16.24-16.85C1004.57,654,1000,647.72,1000,637.5c0-13.48,10.71-22.74,26.83-22.74a48.36,48.36,0,0,1,17.81,3.13Z"/><path class="d" d="M1079.78,682.74c-4-4.45-8.78-10.11-12.27-14.56h-.24v32H1055.6v-91h11.67v55.59h.24c3.25-3.73,8.42-9.27,12.51-13.48l12.51-12.51h15.16l-28.88,27,32.25,34.41h-15.52Z"/><path class="d" d="M1135.26,676c1.32,3.85,3.37,10.71,4.45,14.92h.24c1.2-4.21,3.37-11.31,4.57-14.92L1157,638.82h11.55l-21.9,60.77c-7.58,20.82-13,27.32-25.51,27.32a25.5,25.5,0,0,1-7-1l.72-9a19.64,19.64,0,0,0,5.41.84c6.62,0,9.39-3.49,13.36-14.92l-23.22-64h12.39Z"/><path class="d" d="M1234.41,639.3c-.84-3.49-2.65-10.23-3.37-14.2h-.24c-.72,4-2.17,10.35-3.13,14.2L1212,700.19h-15.52l-25.51-84h13.12l15.76,56.32c.72,2.65,3.37,13.36,4.33,18.29h.24c1-4.93,3.61-15.52,4.33-18.29l14-56.32h17.33l14.32,56.32c.72,2.89,3.25,13.36,4.21,18.29h.24c1.08-4.93,3.61-15.16,4.45-18.29l15.64-56.32h12.63l-26,84H1250.3Z"/><path class="d" d="M1291.82,642.55c5.78-3.49,13.24-5.17,20.46-5.17,17.93,0,24.67,10.35,24.67,24.31,0,7.82-.24,17.45-.24,20,0,6.74.24,14.08.72,18.53H1327.2c-.12-1-.24-3.25-.24-5.05,0-1.57.12-3.73.24-5.42H1327c-4.21,7.34-11,11.31-20.46,11.31-13,0-21.42-7.22-21.42-18.53,0-12.75,11.55-20,32.25-20,2.53,0,5.9.12,8.66.36v-.48c0-10.35-5.17-15.64-15.64-15.64a32.16,32.16,0,0,0-17.81,5.9Zm28,28.16c-15.16,0-22.62,3.61-22.62,11.79,0,6,4.69,9.63,11.67,9.63s12.63-3.49,15.28-9c1.32-2.77,1.92-6.74,1.92-12.15C1324.79,670.83,1322.62,670.71,1319.86,670.71Z"/><path class="d" d="M1366.67,676c1.32,3.85,3.37,10.71,4.45,14.92h.24c1.2-4.21,3.37-11.31,4.57-14.92l12.51-37.18H1400l-21.9,60.77c-7.58,20.82-13,27.32-25.51,27.32a25.5,25.5,0,0,1-7-1l.72-9a19.64,19.64,0,0,0,5.41.84c6.62,0,9.39-3.49,13.36-14.92l-23.22-64h12.39Z"/><path class="d" d="M1024.05,593.81h-22.6V554h22.14v4.85h-16.38v12h15.23v4.79h-15.23V588.9h16.83Z"/><path class="d" d="M1036,569.39a11.26,11.26,0,0,1,9.7-5.36c8.22,0,10.84,5.42,10.84,13.12v16.66h-5.42V579.43c0-5.71-.57-10.9-6.73-10.9a8.21,8.21,0,0,0-7,4.17c-.91,1.6-1.37,3.77-1.37,7.19v13.92h-5.42V573.33c0-3.08-.06-6.16-.29-8.62h5.31c.11,1.26.23,3.14.23,4.68Z"/><path class="d" d="M1070.68,564.88h7.82v4.28h-7.82v12.78c0,4.62.63,7.82,5,7.82a7.4,7.4,0,0,0,3.14-.68l.17,4.28a13.08,13.08,0,0,1-4.62.8c-7.36,0-9.07-4.45-9.07-10.73V569.16h-6.68v-4.28h6.68V558l5.36-1.83Z"/><path class="d" d="M1087.34,580.57c.23,5.88,4.22,9.36,10.1,9.36a17.25,17.25,0,0,0,8.5-2.17l.17,5a21.19,21.19,0,0,1-9,1.77c-9.7,0-15.24-5.88-15.24-15.46,0-9.19,5.59-15,13.87-15,7.65,0,12.5,4.62,12.5,14.44,0,.57-.06,1.48-.11,2.11Zm15.58-4.17c0-5.59-3.08-8.27-7.36-8.27s-7.65,3.08-8.1,8.27Z"/><path class="d" d="M1118.9,569.62c1.66-3.31,4.45-5.59,8.16-5.59a7.85,7.85,0,0,1,2.79.4v5.08a7.76,7.76,0,0,0-2.91-.46c-5,0-8,4.17-8,11.58v13.18h-5.42V573.33c0-3.08-.06-6.16-.29-8.62h5.36a47,47,0,0,1,.23,4.91Z"/><path class="d" d="M1134.54,573.33c0-3.08-.06-6.16-.28-8.62h5.19c.11,1.2.23,3.2.23,4.68h.11a11,11,0,0,1,10-5.36c7.48,0,12.5,5.93,12.5,14.84,0,9.24-5.08,15.63-12.61,15.63a11,11,0,0,1-9.76-5.59h-.11c.11,1.14.17,5.48.17,7.19v9.7h-5.42Zm5.36,6c0,5.82,3.77,10.67,8.56,10.67,5,0,8.16-4.79,8.16-10.67,0-6.45-3.2-10.78-8.16-10.78C1143.67,568.53,1139.9,573.27,1139.9,579.32Z"/><path class="d" d="M1172.37,569.62c1.65-3.31,4.45-5.59,8.16-5.59a7.86,7.86,0,0,1,2.8.4v5.08a7.77,7.77,0,0,0-2.91-.46c-5,0-8,4.17-8,11.58v13.18h-5.42V573.33c0-3.08-.06-6.16-.29-8.62H1172a47,47,0,0,1,.23,4.91Z"/><path class="d" d="M1193.43,559.46h-6v-6h6Zm-.28,34.35h-5.48v-29.1h5.48Z"/><path class="d" d="M1199.13,588.22a14.45,14.45,0,0,0,7.08,1.88c3.14,0,5.48-1.48,5.48-4,0-2.28-1.54-3.37-6-5.53-4.85-2.34-6.68-4.39-6.68-8.1,0-5.25,4.22-8.45,10.16-8.45a18.2,18.2,0,0,1,6.73,1.2l-.46,4.51a13.73,13.73,0,0,0-6.22-1.43c-2.68,0-4.79,1.31-4.79,3.71s1.65,3.37,5.36,5c5.42,2.34,7.36,4.85,7.36,8.67,0,5.82-4.39,8.84-10.5,8.84a20.59,20.59,0,0,1-7.87-1.43Z"/><path class="d" d="M1225.61,580.57c.23,5.88,4.22,9.36,10.1,9.36a17.25,17.25,0,0,0,8.5-2.17l.17,5a21.19,21.19,0,0,1-9,1.77c-9.7,0-15.23-5.88-15.23-15.46,0-9.19,5.59-15,13.87-15,7.64,0,12.5,4.62,12.5,14.44,0,.57-.06,1.48-.11,2.11Zm15.58-4.17c0-5.59-3.08-8.27-7.36-8.27s-7.65,3.08-8.1,8.27Z"/><path class="d" d="M1288.61,560.49a17.12,17.12,0,0,0-8.45-2c-8.9,0-15.12,6.33-15.12,15.18,0,9.36,6.5,15.46,15.52,15.46a19.46,19.46,0,0,0,8.45-1.71l.4,5.36a25.25,25.25,0,0,1-8.84,1.43c-12.55,0-21.57-7.25-21.57-20.54,0-11.81,9.13-20.08,21.17-20.08a22.11,22.11,0,0,1,9,1.54Z"/><path class="d" d="M1300.88,593.81h-5.48V550.67h5.48Z"/><path class="d" d="M1334.72,579.43c0,8.9-6.16,15.06-15,15.06-8.62,0-15-6.28-15-15.06,0-9.13,6.22-15.41,15.12-15.41C1328.56,564,1334.72,570.42,1334.72,579.43Zm-24.14,0c0,6.39,3.77,10.56,9.3,10.56,5.31,0,9.19-4.22,9.19-10.56,0-6.5-3.88-10.9-9.36-10.9C1314.4,568.53,1310.58,573,1310.58,579.43Z"/><path class="d" d="M1358.69,589.19a11.11,11.11,0,0,1-10,5.31c-6.5,0-10.5-4.56-10.5-11.64V564.71h5.42v14.38c0,6,.63,10.9,6.62,10.9,5.14,0,8.33-4.74,8.33-10.27v-15h5.42v20.37a83.2,83.2,0,0,0,.28,8.73H1359c-.11-1.2-.23-2.68-.23-4.62Z"/><path class="d" d="M1395.38,585c0,3.08.06,6.33.29,8.79h-5c-.11-1.54-.17-3.14-.17-5h-.11a10.88,10.88,0,0,1-9.87,5.71c-7.82,0-12.78-6-12.78-15.06S1373,564,1380.6,564c4.28,0,7.7,1.94,9.47,5.08h.11c-.11-1.83-.17-4.39-.17-7.25V550.67h5.36Zm-21.85-5.65c0,6,3.31,10.61,8.16,10.61s8.5-4.74,8.5-10.61c0-6.16-3.6-10.84-8.5-10.84C1376.95,568.53,1373.52,573.21,1373.52,579.38Z"/><polygon class="e" points="1001.67 189.27 1001.67 417.76 1200 532.01 1398.33 417.76 1398.33 189.27 1200 75.02 1001.67 189.27"/><path class="b" d="M1200,533.94,1000,418.73V188.3l.83-.48L1200,73.1,1400,188.3V418.73l-.83.48ZM1003.33,416.8,1200,530.09,1396.67,416.8V190.23L1200,76.95,1003.33,190.23Z"/><polygon class="b" points="1042.02 212.51 1042.02 394.52 1200 485.52 1357.98 394.52 1357.98 212.51 1200 121.51 1042.02 212.51"/><path class="f" d="M1200,489.36a3.84,3.84,0,0,1-3.84-3.84v-182a3.84,3.84,0,0,1,7.68,0v182A3.84,3.84,0,0,1,1200,489.36Z"/><polygon class="g" points="1357.98 212.51 1200 303.52 1200 485.52 1357.98 394.52 1357.98 212.51"/><polygon class="h" points="1042.02 212.51 1200 303.52 1200 485.52 1042.02 394.52 1042.02 212.51"/><path class="i" d="M1209.34,126.89l-9.34-5.38-9.34,5.38c-1.24,31.67-3.8,86.63-8.92,164.26-4.58,69.51-12.4,131-18.66,173.12L1200,485.52l36.92-21.27c-6.26-42.09-14.08-103.6-18.66-173.12C1213.14,213.51,1210.58,158.56,1209.34,126.89Z"/><path class="b" d="M1190.66,126.89l-20.47,11.79c-3.64,35.74-11.72,95.82-28.76,157.35-13.7,49.48-36.6,92.89-55.76,123.64l77.41,44.59c6.26-42.09,14.08-103.6,18.66-173.12C1186.86,213.51,1189.42,158.56,1190.66,126.89Z"/><path class="j" d="M1190.66,126.89l-20.47,11.79c-3.64,35.74-11.72,95.82-28.76,157.35-13.7,49.48-36.6,92.89-55.76,123.64l77.41,44.59c6.26-42.09,14.08-103.6,18.66-173.12C1186.86,213.51,1189.42,158.56,1190.66,126.89Z"/><path class="b" d="M1229.81,138.68l-20.47-11.79c1.24,31.67,3.8,86.63,8.92,164.26,4.58,69.51,12.4,131,18.66,173.12l77.41-44.59c-19.17-30.75-42.07-74.16-55.76-123.64C1241.53,234.5,1233.45,174.42,1229.81,138.68Z"/><path class="k" d="M1229.81,138.68l-20.47-11.79c1.24,31.67,3.8,86.63,8.92,164.26,4.58,69.51,12.4,131,18.66,173.12l77.41-44.59c-19.17-30.75-42.07-74.16-55.76-123.64C1241.53,234.5,1233.45,174.42,1229.81,138.68Z"/></g></svg>