<svg xmlns="http://www.w3.org/2000/svg" xmlns:xlink="http://www.w3.org/1999/xlink" width="1600" height="800" viewBox="0 0 1600 800"><defs><style>.a{isolation:isolate;}.b,.i{fill:#5285ff;}.c{fill:none;stroke:#004386;stroke-miterlimit:10;stroke-width:50px;}.d{fill:#004386;}.e,.f{fill:#fff;}.f{opacity:0.24;}.f,.g,.h{mix-blend-mode:overlay;}.g{opacity:0.41;fill:url(#a);}.h{opacity:0.18;fill:url(#b);}.i{opacity:0.83;}.j,.k{mix-blend-mode:screen;}.j{fill:url(#c);}.k{fill:url(#d);}</style><linearGradient id="a" x1="1140.37" y1="3747.99" x2="1298.35" y2="3747.99" gradientTransform="translate(59.63 -3339.52)" gradientUnits="userSpaceOnUse"><stop offset="0" stop-color="#fff"/><stop offset="0.47" stop-color="#c1bebd"/><stop offset="1" stop-color="#463d3a"/></linearGradient><linearGradient id="b" x1="982.38" y1="3747.99" x2="1140.37" y2="3747.99" xlink:href="#a"/><linearGradient id="c" x1="1138.17" y1="567.18" x2="1138.17" y2="134.07" gradientUnits="userSpaceOnUse"><stop offset="0.66" stop-color="#fff"/><stop offset="0.66" stop-color="#fdfdfd"/><stop offset="0.7" stop-color="#d1d1d1"/><stop offset="0.75" stop-color="#aaa"/><stop offset="0.79" stop-color="#8b8b8b"/><stop offset="0.84" stop-color="#737373"/><stop offset="0.88" stop-color="#616161"/><stop offset="0.94" stop-color="#575757"/><stop offset="1" stop-color="#545454"/></linearGradient><linearGradient id="d" x1="-15.59" y1="567.18" x2="-15.59" y2="134.07" gradientTransform="matrix(-1, 0, 0, 1, 1246.24, 0)" xlink:href="#c"/></defs><title>アートボード 1</title><g class="a"><path class="b" d="M619.39,356.49c8.58-53.35-33.83-93.14-77.71-100.88-13.32-43.31-39.35-76.61-88.66-85-54.34-9.24-100-.58-136.69,46.84-19.08-2.35-49.3,1.62-65,10.41-15.2,8.47-44,26.4-46.8,64-.06.77,0,1.54-.05,2.31A88.29,88.29,0,0,0,191,450.26c18.18,10.68,27.16,13.14,45.27,13.71a88.1,88.1,0,0,0,63.13-24.52c15.73,34.16,49.12,51.83,89.28,54.82,45.1,3.36,85.65-14.64,104.17-53a72.19,72.19,0,0,0,105.91-11.85c36.41,10.83,39.74,58.28,39.74,58.28S674.39,402.39,619.39,356.49ZM167.44,394.87S273.31,301,411.32,299.45c67.26.41,105.88,14.3,128,26.4,58.68,32.07,86.41,76.54,86.41,76.54s-74-87.09-182.38-90.41c-28.57-.88-59.72-.73-99.52,10.47C297.91,335.35,214.26,371,177.78,413,171.62,409.42,168.7,400.71,167.44,394.87Zm299-32.54c-23.08-1-68.39,5.88-108.19,17.07C312.32,392.32,273,418,237,448.32c-12.31,1.42-42.69-10.57-52.45-23.69,0,0,109.9-101.26,247.91-100.41,73.51.46,108.93,21.58,124.59,30.48,45.72,26,62.72,52,71,68.58C598,390.56,562.39,366.36,466.46,362.33Z"/><path class="b" d="M165.8,599.74,170,583.22a50.08,50.08,0,0,0,22.91,5.73q6.7,0,10.44-2.54a8,8,0,0,0,3.74-7,8.15,8.15,0,0,0-3.38-6.64q-3.38-2.66-11.71-5.46-25.12-8.34-25.12-26.16a23.32,23.32,0,0,1,9.24-19q9.24-7.45,24.6-7.45,13.4,0,23.42,4.55l-4.55,16A44.63,44.63,0,0,0,200.42,531q-6.12,0-9.57,2.34a7.11,7.11,0,0,0-3.45,6.12,7.44,7.44,0,0,0,2.89,5.89q2.9,2.44,13.89,6.35Q216.37,556,222,562.36a22.91,22.91,0,0,1,5.63,15.78,23.93,23.93,0,0,1-9.5,19.65q-9.51,7.55-26.55,7.55Q177,605.34,165.8,599.74Z"/><path class="b" d="M261.07,511.25v55.83h.26q1.69-3.38,18.22-26.81h24.34L280.2,566l27.2,37.87h-25l-16.14-26.16-5.21,6.38v19.78H240.9V511.25Z"/><path class="b" d="M306.36,540.27h22.38q12.3,39,13.15,43.08h.39l11.19-43.08h21.6l-14.71,40.28a246.11,246.11,0,0,1-10.74,25.8q-4.81,9.53-9.6,14.64a37.87,37.87,0,0,1-10.71,8.07,35.2,35.2,0,0,1-12.17,3.61L313,615.75q8.53-1.7,13.44-6.63t4.91-7.29a11.79,11.79,0,0,0-1-3.39Z"/><path class="b" d="M421.15,603.91H398.9l-21.48-87.72H399q9.11,46.72,12.36,66.89h.26q1.69-12.62,13.4-66.89h22q10.35,53.23,11.84,66.37h.26q1-10,12.75-66.37h20.56L469,603.91H447.18q-8.72-43.14-9.79-49.16t-2.18-16.43h-.26q-2.34,14.71-5.07,26.81Z"/><path class="b" d="M556.5,566.3v22.12a92,92,0,0,0,1,15.49H539.45l-1.17-6.38h-.52q-6.58,7.8-18.61,7.81-9.37,0-15.23-5.7a18.55,18.55,0,0,1-5.86-13.83q0-11.84,9.92-18.15t28.47-6.32v-.78q0-7.93-12-7.93a35.51,35.51,0,0,0-18.09,4.81l-3.77-12.75q10.61-5.86,25.38-5.86,14.06,0,21.28,7.09T556.5,566.3Zm-19.39,14.05v-6.5q-19.13,0-19.13,9.89a7.2,7.2,0,0,0,2.15,5.56,8.39,8.39,0,0,0,5.92,2,11.67,11.67,0,0,0,7.58-2.86A9.86,9.86,0,0,0,537.11,580.35Z"/><path class="b" d="M565.48,540.27h22.38q12.3,39,13.14,43.08h.39l11.19-43.08h21.6l-14.71,40.28a246.1,246.1,0,0,1-10.74,25.8q-4.81,9.53-9.6,14.64a37.87,37.87,0,0,1-10.71,8.07,35.2,35.2,0,0,1-12.17,3.61l-4.17-16.92q8.53-1.7,13.44-6.63t4.91-7.29a11.79,11.79,0,0,0-1-3.39Z"/><line class="c" x1="765" y1="385.13" x2="832.42" y2="384.82"/><polygon class="d" points="823.99 324.11 824.56 445.6 885 384.58 823.99 324.11"/><path class="d" d="M1028.45,639.48c-.38-1.56-1.19-4.59-1.51-6.37h-.11c-.32,1.78-1,4.64-1.4,6.37l-7,27.32h-7L1000,629.12h5.88l7.07,25.27c.32,1.19,1.51,6,1.94,8.21h.11c.43-2.21,1.62-7,1.94-8.21l6.26-25.27H1031l6.42,25.27c.32,1.3,1.46,6,1.89,8.21h.11c.49-2.21,1.62-6.8,2-8.21l7-25.27h5.67l-11.66,37.68h-6.86Z"/><path class="d" d="M1056.9,654.27c.22,5.56,4,8.85,9.56,8.85a16.33,16.33,0,0,0,8-2.05l.16,4.7a20,20,0,0,1-8.53,1.67c-9.18,0-14.41-5.56-14.41-14.63,0-8.69,5.29-14.2,13.12-14.2,7.23,0,11.82,4.37,11.82,13.66,0,.54-.05,1.4-.11,2Zm14.74-3.94c0-5.29-2.92-7.83-7-7.83s-7.23,2.91-7.67,7.83Z"/><path class="d" d="M1085.46,662c0,1.73-.11,3.67-.22,4.75h-4.59c.22-2.32.27-5.4.27-8.31V626h5v10.58c0,2.7-.05,5.4-.16,7.13h.11a10.7,10.7,0,0,1,9.39-5.07c7.13,0,11.77,6.1,11.77,14.14,0,8.37-4.7,14.68-12.2,14.68a10.47,10.47,0,0,1-9.29-5.4Zm.54-8.91c0,5.56,3.46,10,8,10,4.7,0,7.72-4.43,7.72-10.09,0-5.94-2.81-10.2-7.67-10.2C1089.51,642.88,1086,647.42,1086,653.14Z"/><path class="d" d="M1111.81,629.12h9.45c9,0,14.63,2.48,14.63,9.88,0,5.13-3.46,7.77-8.53,8.8v.11c2.54.86,3.94,2.48,5.24,5.18L1139,666.8h-6.1l-5.34-12c-1.67-3.83-3.08-4.8-8.58-4.8h-1.62V666.8h-5.51Zm5.51,16.3h2.59c6.64,0,10.42-1.67,10.42-6,0-4.8-3.78-5.72-10.42-5.72h-2.59Z"/><path class="d" d="M1149.33,666.8v-33l-11.71.16v-4.8h28.61v4.8l-11.39-.16v33Z"/><path class="d" d="M1193,635.27a16.18,16.18,0,0,0-8-1.89c-8.42,0-14.31,6-14.31,14.36,0,8.85,6.15,14.63,14.68,14.63a18.41,18.41,0,0,0,8-1.62l.38,5.07a23.86,23.86,0,0,1-8.37,1.35c-11.88,0-20.41-6.86-20.41-19.43,0-11.17,8.64-19,20-19a20.92,20.92,0,0,1,8.48,1.46Z"/><path class="d" d="M1215.85,629.12c8.64,0,15.22,2.11,15.22,11.28s-7.45,11.34-15.22,11.34h-3.18V666.8h-5.51V629.12Zm-3.18,18h2.7c6.59,0,10.26-1.3,10.26-6.7,0-5.24-3.67-6.75-10.31-6.75h-2.65Z"/><path class="d" d="M1239.71,666.8h-5.18V626h5.18Z"/><path class="d" d="M1246.73,640.94a18.13,18.13,0,0,1,9.18-2.32c8,0,11.07,4.64,11.07,10.9,0,3.51-.11,7.83-.11,9,0,3,.11,6.32.32,8.31h-4.59c-.05-.43-.11-1.46-.11-2.27s.05-1.67.11-2.43h-.11c-1.89,3.29-4.91,5.07-9.18,5.07-5.83,0-9.61-3.24-9.61-8.31,0-5.72,5.18-9,14.47-9,1.13,0,2.65.05,3.89.16v-.22c0-4.64-2.32-7-7-7a14.42,14.42,0,0,0-8,2.65Zm12.58,12.63c-6.8,0-10.15,1.62-10.15,5.29,0,2.7,2.11,4.32,5.24,4.32a7.39,7.39,0,0,0,6.86-4,13,13,0,0,0,.86-5.45C1261.52,653.63,1260.55,653.57,1259.31,653.57Z"/><path class="d" d="M1280.47,639.43h7.4v4h-7.4v12.09c0,4.37.59,7.4,4.75,7.4a7,7,0,0,0,3-.65l.16,4a12.38,12.38,0,0,1-4.37.76c-7,0-8.58-4.21-8.58-10.15v-13.5h-6.32v-4h6.32V633l5.07-1.73Z"/><path class="d" d="M1309.73,630.36a11.76,11.76,0,0,0-2.64-.32c-3.4,0-4.64,2-4.64,6.69v2.7h7.4v4h-7.4V666.8h-5.07V643.48h-6.53v-4h6.53v-2.59c0-6.59,2.27-11.07,9-11.07a15,15,0,0,1,3.78.43Z"/><path class="d" d="M1337.81,653.2c0,8.42-5.83,14.25-14.14,14.25-8.15,0-14.14-5.94-14.14-14.25,0-8.64,5.88-14.58,14.31-14.58C1332,638.62,1337.81,644.67,1337.81,653.2Zm-22.84,0c0,6,3.56,10,8.8,10,5,0,8.69-4,8.69-10,0-6.15-3.67-10.31-8.85-10.31C1318.59,642.88,1315,647.09,1315,653.2Z"/><path class="d" d="M1346.55,643.91c1.57-3.13,4.21-5.29,7.72-5.29a7.42,7.42,0,0,1,2.64.38v4.8a7.34,7.34,0,0,0-2.75-.43c-4.75,0-7.61,3.94-7.61,11V666.8h-5.13V647.42c0-2.91-.05-5.83-.27-8.15h5.08a44.52,44.52,0,0,1,.22,4.64Z"/><path class="d" d="M1365.18,643.69a9.63,9.63,0,0,1,8.69-5.07,7.82,7.82,0,0,1,7.94,5.67,9.9,9.9,0,0,1,9.12-5.67c6,0,9.07,3.78,9.07,11.23v17h-5.13v-17c0-4.48-1.78-7-5.13-7a6.69,6.69,0,0,0-5.72,3.62,15.52,15.52,0,0,0-1.3,7.07V666.8h-5.13v-16c0-5.78-1.35-7.88-4.86-7.88a7,7,0,0,0-6.15,4.26,15.49,15.49,0,0,0-1.19,6.69v13h-5.13V647.42c0-2.91-.05-5.83-.27-8.15h4.91c.11,1.19.16,3,.16,4.43Z"/><path class="d" d="M1012.68,619.07h-10.14V601.21h9.93v2.18h-7.35v5.38H1012v2.15h-6.83v6h7.55Z"/><path class="d" d="M1018,608.12a5,5,0,0,1,4.35-2.41c3.69,0,4.86,2.43,4.86,5.89v7.47h-2.43v-6.45c0-2.56-.26-4.89-3-4.89a3.68,3.68,0,0,0-3.12,1.87,6.4,6.4,0,0,0-.61,3.23v6.25h-2.43v-9.19c0-1.38,0-2.76-.13-3.87h2.38c.05.56.1,1.41.1,2.1Z"/><path class="d" d="M1033.6,606.1h3.51V608h-3.51v5.73c0,2.07.28,3.51,2.25,3.51a3.32,3.32,0,0,0,1.41-.31l.08,1.92a5.87,5.87,0,0,1-2.07.36c-3.3,0-4.07-2-4.07-4.81V608h-3V606.1h3V603l2.41-.82Z"/><path class="d" d="M1041.07,613.14a4.16,4.16,0,0,0,4.53,4.2,7.74,7.74,0,0,0,3.81-1l.08,2.23a9.51,9.51,0,0,1-4,.79c-4.35,0-6.84-2.64-6.84-6.94,0-4.12,2.51-6.73,6.22-6.73,3.43,0,5.61,2.07,5.61,6.48,0,.26,0,.67-.05.95Zm7-1.87c0-2.51-1.38-3.71-3.3-3.71s-3.43,1.38-3.63,3.71Z"/><path class="d" d="M1055.23,608.22a4.09,4.09,0,0,1,3.66-2.51,3.52,3.52,0,0,1,1.25.18v2.28a3.48,3.48,0,0,0-1.31-.2c-2.25,0-3.61,1.87-3.61,5.2v5.91h-2.43v-9.19c0-1.38,0-2.76-.13-3.87h2.41a21.1,21.1,0,0,1,.1,2.2Z"/><path class="d" d="M1062.25,609.88c0-1.38,0-2.76-.13-3.87h2.33c.05.54.1,1.43.1,2.1h.05a4.91,4.91,0,0,1,4.48-2.41c3.35,0,5.61,2.66,5.61,6.66,0,4.15-2.28,7-5.66,7a4.91,4.91,0,0,1-4.38-2.51h-.05c.05.51.08,2.46.08,3.23v4.35h-2.43Zm2.41,2.69c0,2.61,1.69,4.79,3.84,4.79s3.66-2.15,3.66-4.79c0-2.89-1.43-4.84-3.66-4.84S1064.65,609.86,1064.65,612.57Z"/><path class="d" d="M1079.22,608.22a4.09,4.09,0,0,1,3.66-2.51,3.53,3.53,0,0,1,1.25.18v2.28a3.49,3.49,0,0,0-1.31-.2c-2.25,0-3.61,1.87-3.61,5.2v5.91h-2.43v-9.19c0-1.38,0-2.76-.13-3.87h2.41a21.1,21.1,0,0,1,.1,2.2Z"/><path class="d" d="M1088.67,603.66H1086V601h2.71Zm-.13,15.41h-2.46V606h2.46Z"/><path class="d" d="M1091.23,616.57a6.48,6.48,0,0,0,3.17.84c1.41,0,2.46-.67,2.46-1.79s-.69-1.51-2.71-2.48c-2.18-1-3-2-3-3.64,0-2.36,1.89-3.79,4.56-3.79a8.17,8.17,0,0,1,3,.54l-.2,2a6.16,6.16,0,0,0-2.79-.64c-1.2,0-2.15.59-2.15,1.66s.74,1.51,2.41,2.23c2.43,1,3.3,2.18,3.3,3.89,0,2.61-2,4-4.71,4a9.24,9.24,0,0,1-3.53-.64Z"/><path class="d" d="M1103.11,613.14a4.16,4.16,0,0,0,4.53,4.2,7.74,7.74,0,0,0,3.81-1l.08,2.23a9.51,9.51,0,0,1-4,.79c-4.35,0-6.83-2.64-6.83-6.94,0-4.12,2.51-6.73,6.22-6.73,3.43,0,5.61,2.07,5.61,6.48,0,.26,0,.67-.05.95Zm7-1.87c0-2.51-1.38-3.71-3.3-3.71s-3.43,1.38-3.64,3.71Z"/><path class="d" d="M1131.37,604.12a7.68,7.68,0,0,0-3.79-.9,6.53,6.53,0,0,0-6.78,6.81,6.62,6.62,0,0,0,7,6.94,8.73,8.73,0,0,0,3.79-.77l.18,2.41a11.33,11.33,0,0,1-4,.64c-5.63,0-9.68-3.25-9.68-9.22,0-5.3,4.1-9,9.5-9a9.92,9.92,0,0,1,4,.69Z"/><path class="d" d="M1136.88,619.07h-2.46V599.72h2.46Z"/><path class="d" d="M1152.06,612.62a6.44,6.44,0,0,1-6.71,6.76,6.84,6.84,0,0,1,.08-13.67C1149.29,605.71,1152.06,608.58,1152.06,612.62Zm-10.83,0c0,2.87,1.69,4.74,4.17,4.74s4.12-1.89,4.12-4.74-1.74-4.89-4.2-4.89S1141.23,609.73,1141.23,612.62Z"/><path class="d" d="M1162.81,617a5,5,0,0,1-4.51,2.38c-2.92,0-4.71-2-4.71-5.22V606H1156v6.45c0,2.71.28,4.89,3,4.89,2.3,0,3.74-2.12,3.74-4.61V606h2.43v9.14a37.33,37.33,0,0,0,.13,3.92H1163c-.05-.54-.1-1.2-.1-2.07Z"/><path class="d" d="M1179.27,615.13c0,1.38,0,2.84.13,3.94h-2.23c-.05-.69-.08-1.41-.08-2.25H1177a4.88,4.88,0,0,1-4.43,2.56c-3.51,0-5.73-2.69-5.73-6.76s2.33-6.91,5.76-6.91a4.69,4.69,0,0,1,4.25,2.28h.05c-.05-.82-.08-2-.08-3.25v-5h2.41Zm-9.8-2.53c0,2.71,1.48,4.76,3.66,4.76s3.81-2.12,3.81-4.76-1.61-4.86-3.81-4.86S1169.47,609.83,1169.47,612.6Z"/><polygon class="e" points="1001.67 248.73 1001.67 477.22 1200 591.47 1398.33 477.22 1398.33 248.73 1200 134.48 1001.67 248.73"/><path class="b" d="M1200,593.39,1000,478.18V247.76l.83-.48L1200,132.55l200,115.21V478.18l-.83.48ZM1003.33,476.25,1200,589.54l196.67-113.29V249.69L1200,136.4,1003.33,249.69Z"/><polygon class="b" points="1042.02 271.97 1042.02 453.98 1200 544.98 1357.98 453.98 1357.98 271.97 1200 180.97 1042.02 271.97"/><path class="f" d="M1200,548.82a3.84,3.84,0,0,1-3.84-3.84V363a3.84,3.84,0,0,1,7.68,0V545A3.84,3.84,0,0,1,1200,548.82Z"/><polygon class="g" points="1357.98 271.97 1200 362.97 1200 544.98 1357.98 453.98 1357.98 271.97"/><polygon class="h" points="1042.02 271.97 1200 362.97 1200 544.98 1042.02 453.98 1042.02 271.97"/><path class="i" d="M1209.34,186.34,1200,181l-9.34,5.38c-1.24,31.67-3.8,86.63-8.92,164.26-4.58,69.51-12.4,131-18.66,173.12L1200,545l36.92-21.27c-6.26-42.09-14.08-103.6-18.66-173.12C1213.14,273,1210.58,218,1209.34,186.34Z"/><path class="b" d="M1190.66,186.34l-20.47,11.79c-3.64,35.74-11.72,95.82-28.76,157.35-13.7,49.48-36.6,92.89-55.76,123.64l77.41,44.59c6.26-42.09,14.08-103.6,18.66-173.12C1186.86,273,1189.42,218,1190.66,186.34Z"/><path class="j" d="M1190.66,186.34l-20.47,11.79c-3.64,35.74-11.72,95.82-28.76,157.35-13.7,49.48-36.6,92.89-55.76,123.64l77.41,44.59c6.26-42.09,14.08-103.6,18.66-173.12C1186.86,273,1189.42,218,1190.66,186.34Z"/><path class="b" d="M1229.81,198.14l-20.47-11.79c1.24,31.67,3.8,86.63,8.92,164.26,4.58,69.51,12.4,131,18.66,173.12l77.41-44.59c-19.17-30.75-42.07-74.16-55.76-123.64C1241.53,294,1233.45,233.87,1229.81,198.14Z"/><path class="k" d="M1229.81,198.14l-20.47-11.79c1.24,31.67,3.8,86.63,8.92,164.26,4.58,69.51,12.4,131,18.66,173.12l77.41-44.59c-19.17-30.75-42.07-74.16-55.76-123.64C1241.53,294,1233.45,233.87,1229.81,198.14Z"/></g></svg>