<svg id="SkyWay" xmlns="http://www.w3.org/2000/svg" width="404.2" height="71.5" viewBox="0 0 404.2 71.5"><defs><style>.cls-1{fill:#fff;}</style></defs><title>アートボード 1</title><g id="Enterprise_Cloud" data-name="Enterprise Cloud"><path class="cls-1" d="M9.62,29.53H0V12.58H9.42v2.06h-7v5.1H8.94v2H2.45v5.66H9.62Z"/><path class="cls-1" d="M14.69,19.14a4.79,4.79,0,0,1,4.13-2.28c3.5,0,4.61,2.31,4.61,5.58v7.09H21.13V23.41c0-2.43-.24-4.64-2.87-4.64a3.49,3.49,0,0,0-3,1.77,6.07,6.07,0,0,0-.58,3.06v5.92H12.41V20.82c0-1.31,0-2.62-.12-3.67h2.26c0,.53.1,1.34.1,2Z"/><path class="cls-1" d="M29.46,17.22h3.33V19H29.46v5.44c0,2,.27,3.33,2.14,3.33a3.15,3.15,0,0,0,1.34-.29L33,29.34a5.57,5.57,0,0,1-2,.34c-3.13,0-3.86-1.89-3.86-4.56V19H24.33V17.22h2.84V14.31l2.28-.78Z"/><path class="cls-1" d="M36.55,23.9a4,4,0,0,0,4.3,4A7.34,7.34,0,0,0,44.46,27l.07,2.11a9,9,0,0,1-3.84.75c-4.13,0-6.48-2.5-6.48-6.58,0-3.91,2.38-6.39,5.9-6.39,3.25,0,5.32,2,5.32,6.14,0,.24,0,.63,0,.9Zm6.63-1.77c0-2.38-1.31-3.52-3.13-3.52a3.49,3.49,0,0,0-3.45,3.52Z"/><path class="cls-1" d="M50,19.24a3.88,3.88,0,0,1,3.47-2.38,3.34,3.34,0,0,1,1.19.17v2.16A3.3,3.3,0,0,0,53.4,19C51.26,19,50,20.77,50,23.92v5.61H47.67V20.82c0-1.31,0-2.62-.12-3.67h2.28a20,20,0,0,1,.1,2.09Z"/><path class="cls-1" d="M56.63,20.82c0-1.31,0-2.62-.12-3.67h2.21c0,.51.1,1.36.1,2h0a4.66,4.66,0,0,1,4.25-2.28c3.18,0,5.32,2.53,5.32,6.31s-2.16,6.65-5.37,6.65a4.66,4.66,0,0,1-4.15-2.38h0c0,.49.07,2.33.07,3.06v4.13H56.63Zm2.28,2.55c0,2.48,1.6,4.54,3.64,4.54s3.47-2,3.47-4.54c0-2.74-1.36-4.59-3.47-4.59S58.91,20.79,58.91,23.37Z"/><path class="cls-1" d="M72.73,19.24a3.88,3.88,0,0,1,3.47-2.38,3.34,3.34,0,0,1,1.19.17v2.16A3.31,3.31,0,0,0,76.15,19c-2.14,0-3.42,1.77-3.42,4.93v5.61H70.42V20.82c0-1.31,0-2.62-.12-3.67h2.28a20,20,0,0,1,.1,2.09Z"/><path class="cls-1" d="M81.69,14.92H79.12V12.37h2.57Zm-.12,14.62H79.24V17.15h2.33Z"/><path class="cls-1" d="M84.12,27.15a6.15,6.15,0,0,0,3,.8c1.34,0,2.33-.63,2.33-1.7s-.66-1.43-2.57-2.36S84,22,84,20.45c0-2.23,1.8-3.59,4.32-3.59a7.75,7.75,0,0,1,2.87.51L91,19.29a5.84,5.84,0,0,0-2.65-.61c-1.14,0-2,.56-2,1.58s.7,1.43,2.28,2.11c2.31,1,3.13,2.06,3.13,3.69,0,2.48-1.87,3.76-4.47,3.76a8.76,8.76,0,0,1-3.35-.61Z"/><path class="cls-1" d="M95.39,23.9a4,4,0,0,0,4.3,4A7.34,7.34,0,0,0,103.3,27l.07,2.11a9,9,0,0,1-3.84.75c-4.13,0-6.48-2.5-6.48-6.58,0-3.91,2.38-6.39,5.9-6.39,3.25,0,5.32,2,5.32,6.14,0,.24,0,.63,0,.9ZM102,22.13c0-2.38-1.31-3.52-3.13-3.52a3.49,3.49,0,0,0-3.45,3.52Z"/><path class="cls-1" d="M122.2,15.35a7.28,7.28,0,0,0-3.59-.85A6.19,6.19,0,0,0,112.17,21a6.28,6.28,0,0,0,6.6,6.58,8.28,8.28,0,0,0,3.59-.73l.17,2.28a10.74,10.74,0,0,1-3.76.61c-5.34,0-9.18-3.08-9.18-8.74,0-5,3.89-8.55,9-8.55a9.41,9.41,0,0,1,3.81.66Z"/><path class="cls-1" d="M127.42,29.53h-2.33V11.18h2.33Z"/><path class="cls-1" d="M141.82,23.41a6.11,6.11,0,0,1-6.36,6.41,6.17,6.17,0,0,1-6.36-6.41,6.36,6.36,0,1,1,12.72,0Zm-10.27,0c0,2.72,1.6,4.49,4,4.49s3.91-1.8,3.91-4.49-1.65-4.64-4-4.64S131.55,20.67,131.55,23.41Z"/><path class="cls-1" d="M152,27.57a4.73,4.73,0,0,1-4.27,2.26c-2.77,0-4.47-1.94-4.47-5V17.15h2.31v6.12c0,2.57.27,4.64,2.82,4.64,2.19,0,3.55-2,3.55-4.37V17.15h2.31v8.67a35.41,35.41,0,0,0,.12,3.72h-2.21c0-.51-.1-1.14-.1-2Z"/><path class="cls-1" d="M167.63,25.79c0,1.31,0,2.7.12,3.74h-2.11c0-.66-.07-1.34-.07-2.14h0a4.63,4.63,0,0,1-4.2,2.43c-3.33,0-5.44-2.55-5.44-6.41s2.21-6.56,5.46-6.56a4.45,4.45,0,0,1,4,2.16h0c0-.78-.07-1.87-.07-3.08V11.18h2.28Zm-9.3-2.4c0,2.57,1.41,4.52,3.47,4.52s3.62-2,3.62-4.52-1.53-4.61-3.62-4.61S158.33,20.77,158.33,23.39Z"/></g><g id="SkyWay-2" data-name="SkyWay"><path class="cls-1" d="M208.48,18.62a20.28,20.28,0,0,0-8.39-1.94c-4.78,0-8.14,2.65-8.14,6.2,0,3,1.36,5.17,8.52,8.33,7.81,3.42,11.11,7.3,11.11,13.3,0,7.88-6.2,13.43-15.37,13.43A27,27,0,0,1,185.69,56l.71-6a20.43,20.43,0,0,0,9.36,2.45c5.49,0,9.17-2.84,9.17-7.23,0-3.87-1.87-6-8.72-9-8.39-3.81-10.85-7.17-10.85-12.65,0-7.23,5.75-12.2,14.4-12.2A26,26,0,0,1,209.32,13Z"/><path class="cls-1" d="M230.76,47.8c-2.13-2.39-4.71-5.42-6.59-7.81H224V57.17h-6.26V8.35H224V38.18h.13c1.74-2,4.52-5,6.71-7.23l6.72-6.72h8.14L230.24,38.7l17.3,18.47h-8.33Z"/><path class="cls-1" d="M259.23,44.19c.71,2.07,1.81,5.75,2.39,8h.13c.65-2.26,1.81-6.07,2.45-8l6.72-20h6.2L265.37,56.84c-4.07,11.17-7,14.66-13.69,14.66a13.67,13.67,0,0,1-3.75-.52l.39-4.84a10.53,10.53,0,0,0,2.91.45c3.55,0,5-1.87,7.17-8L245.93,24.24h6.65Z"/><path class="cls-1" d="M309.86,24.5c-.45-1.87-1.42-5.49-1.81-7.62h-.13c-.39,2.13-1.16,5.55-1.68,7.62l-8.39,32.67h-8.33L275.83,12.1h7l8.46,30.22c.39,1.42,1.81,7.17,2.32,9.81h.13c.52-2.65,1.94-8.33,2.33-9.81l7.49-30.22h9.3l7.68,30.22c.39,1.55,1.74,7.17,2.26,9.81H323c.58-2.65,1.94-8.14,2.39-9.81l8.39-30.22h6.78L326.58,57.17h-8.2Z"/><path class="cls-1" d="M345.51,26.24a21.67,21.67,0,0,1,11-2.78c9.62,0,13.24,5.55,13.24,13,0,4.2-.13,9.36-.13,10.72,0,3.62.13,7.55.39,9.94h-5.49c-.06-.52-.13-1.74-.13-2.71s.06-2,.13-2.91h-.13c-2.26,3.94-5.88,6.07-11,6.07-7,0-11.49-3.87-11.49-9.94,0-6.84,6.2-10.72,17.3-10.72,1.36,0,3.16.06,4.65.19v-.26c0-5.55-2.78-8.39-8.39-8.39a17.26,17.26,0,0,0-9.56,3.16Zm15,15.11c-8.14,0-12.14,1.94-12.14,6.33,0,3.23,2.52,5.17,6.26,5.17a8.84,8.84,0,0,0,8.2-4.84,15.59,15.59,0,0,0,1-6.52C363.2,41.41,362,41.35,360.55,41.35Z"/><path class="cls-1" d="M386.31,44.19c.71,2.07,1.81,5.75,2.39,8h.13c.65-2.26,1.81-6.07,2.45-8l6.71-20h6.2L392.45,56.84c-4.07,11.17-7,14.66-13.69,14.66A13.67,13.67,0,0,1,375,71l.39-4.84a10.53,10.53,0,0,0,2.91.45c3.55,0,5-1.87,7.17-8L373,24.24h6.65Z"/></g><g id="WebRTC_Platform" data-name="WebRTC Platform"><path class="cls-1" d="M11.88,44.57c-.24-.76-.57-2-.74-2.77h0c-.14.74-.45,2-.69,2.77l-4,13H5L0,40.89H1.27L5.09,54.06c.14.53.43,1.6.62,2.44h0c.17-.84.41-1.74.62-2.44l4-13.17h1.53L16,54.06c.17.53.48,1.6.69,2.44h0c.17-.81.41-1.74.6-2.44l3.87-13.17h1.19l-5,16.68H16Z"/><path class="cls-1" d="M24.43,51.62c0,3.18,1.77,5.23,4.78,5.23A6,6,0,0,0,32.34,56l.07,1.08a7.28,7.28,0,0,1-3.18.72c-3.85,0-5.93-2.41-5.93-6.33,0-3.7,2.22-6.26,5.38-6.26,2.92,0,4.64,2,4.64,5.66,0,.17,0,.5,0,.74Zm7.79-.93c0-3-1.27-4.56-3.56-4.56s-3.94,1.58-4.18,4.56Z"/><path class="cls-1" d="M36.85,55c0,.86,0,2.08-.1,2.56H35.71c.1-1,.12-2.39.12-3.68V39.51H36.9v5.26c0,1.2,0,2.89-.07,3.42h0a4.82,4.82,0,0,1,4.23-3c3.39,0,5.11,2.8,5.11,6.12,0,3.7-1.77,6.48-5.23,6.48A4.67,4.67,0,0,1,36.9,55Zm8.22-3.61c0-2.87-1.41-5.26-4-5.26-2.29,0-4.21,2.06-4.21,5.28s1.58,5.42,4.13,5.42S45.07,54.85,45.07,51.41Z"/><path class="cls-1" d="M52.7,40.89C56,40.89,58,42.38,58,45a4.19,4.19,0,0,1-3.49,4.11v0a3.46,3.46,0,0,1,2,2.08l2.84,6.33H58.05l-2.53-5.78c-.69-1.58-1.41-2.2-2.8-2.2h-2.6v8H49V40.89Zm-2.58,7.74h2.41c2.56,0,4.23-1.43,4.23-3.56S55.3,41.9,52.53,41.9H50.12Z"/><path class="cls-1" d="M70.46,40.89v1l-5,0v15.7H64.31V41.87l-5,0v-1Z"/><path class="cls-1" d="M83.29,42.3A9.88,9.88,0,0,0,80,41.78a7.16,7.16,0,0,0-7.41,7.53c0,4.42,3,7.36,7.77,7.36a8.65,8.65,0,0,0,2.92-.45l.1,1.15a11.44,11.44,0,0,1-3.11.36c-5.38,0-8.91-3.42-8.91-8.44s3.49-8.53,8.79-8.53a10.73,10.73,0,0,1,3.32.45Z"/><path class="cls-1" d="M90.37,40.89h3.44c3.61,0,5.66,1.74,5.66,4.64s-2.22,4.64-5.88,4.64H91.51v7.41H90.37Zm1.15,8.22h2.17c2.92,0,4.59-1.22,4.59-3.58S96.7,41.9,93.62,41.9h-2.1Z"/><path class="cls-1" d="M102.82,57.57h-1.08V39.51h1.08Z"/><path class="cls-1" d="M113.43,55.26a4.4,4.4,0,0,1-4.11,2.49c-2.37,0-4-1.39-4-3.47,0-2.6,2.32-3.9,6.5-3.9.53,0,1.19,0,1.65.07v-.53c0-2.08-.76-3.8-3.3-3.8a6.18,6.18,0,0,0-3.56,1.17l-.07-1.08a7.75,7.75,0,0,1,3.75-1c3,0,4.21,1.79,4.21,4.66,0,1.55-.1,3.37-.1,4.18,0,1.34.07,2.65.14,3.51h-1.05c0-.19,0-.65,0-1s0-1,0-1.31Zm-1.51-4c-3.42,0-5.47.91-5.47,3,0,1.53,1.24,2.56,3,2.56a3.86,3.86,0,0,0,3.63-2.27,9.22,9.22,0,0,0,.38-3.23A9.53,9.53,0,0,0,111.92,51.24Z"/><path class="cls-1" d="M119.57,42.42v3.11h3.13v.93h-3.13v7.7c0,1.94.79,2.65,2.06,2.65a2.65,2.65,0,0,0,1.24-.26l0,.93a3.65,3.65,0,0,1-1.31.24c-2.32,0-3.11-1.31-3.11-3.56v-7.7H116v-.93h2.49V42.78Z"/><path class="cls-1" d="M130,40.51a4.22,4.22,0,0,0-1.1-.17c-1.58,0-2,1.27-2,2.82v2.37h2.8v.93h-2.8V57.57h-1.08V46.46h-2.56v-.93h2.56V43.19c0-2.15.93-3.78,3.11-3.78a4.31,4.31,0,0,1,1.22.19Z"/><path class="cls-1" d="M141.73,51.55c0,3.75-2.27,6.26-5.54,6.26s-5.54-2.53-5.54-6.29,2.29-6.31,5.66-6.31C139.48,45.22,141.73,47.75,141.73,51.55Zm-9.92,0c0,3.2,1.74,5.28,4.37,5.28s4.4-2.1,4.4-5.38-1.72-5.33-4.42-5.33S131.81,48.28,131.81,51.58Z"/><path class="cls-1" d="M144.33,49.14c0-1.29,0-2.65-.12-3.68h1.05c0,.65.1,1.91.1,2.56h0a3.7,3.7,0,0,1,3.39-2.8,4.06,4.06,0,0,1,.91.1l0,1a3.73,3.73,0,0,0-.88-.1c-2,0-3.37,2.13-3.37,4.54v6.83h-1.08Z"/><path class="cls-1" d="M152.43,47.92a4.33,4.33,0,0,1,4-2.7,3.3,3.3,0,0,1,3.3,3,4.41,4.41,0,0,1,4.18-3c3.23,0,3.87,2.49,3.87,5.54v6.81h-1.08V50.79c0-2.53-.45-4.64-3-4.64-2.1,0-3.58,1.94-3.58,4.45v7H159V50.86c0-3.13-.84-4.71-2.84-4.71a3.67,3.67,0,0,0-3.08,2,5.37,5.37,0,0,0-.67,3.23v6.24h-1.08V49.14c0-1.29,0-2.65-.12-3.68h1.07c0,.65.12,1.79.12,2.46Z"/></g></svg>